<svg width="9" height="8" viewBox="0 0 9 8" fill="none" xmlns="http://www.w3.org/2000/svg">
<path fill-rule="evenodd" clip-rule="evenodd" d="M1.53034 1.46966C1.82323 1.17677 2.29811 1.17677 2.591 1.46966L7.53034 6.409C7.82323 6.70189 7.82323 7.17677 7.53034 7.46966C7.23745 7.76255 6.76257 7.76255 6.46968 7.46966L1.53034 2.53032C1.23745 2.23743 1.23745 1.76255 1.53034 1.46966Z" fill="#27262B"/>
<path fill-rule="evenodd" clip-rule="evenodd" d="M1.53034 1.46966C1.82323 1.17677 2.29811 1.17677 2.591 1.46966L7.53034 6.409C7.82323 6.70189 7.82323 7.17677 7.53034 7.46966C7.23745 7.76255 6.76257 7.76255 6.46968 7.46966L1.53034 2.53032C1.23745 2.23743 1.23745 1.76255 1.53034 1.46966Z" fill="#262626"/>
<path fill-rule="evenodd" clip-rule="evenodd" d="M1.53034 1.46966C1.82323 1.17677 2.29811 1.17677 2.591 1.46966L7.53034 6.409C7.82323 6.70189 7.82323 7.17677 7.53034 7.46966C7.23745 7.76255 6.76257 7.76255 6.46968 7.46966L1.53034 2.53032C1.23745 2.23743 1.23745 1.76255 1.53034 1.46966Z" fill="#2D2D2D"/>
<path fill-rule="evenodd" clip-rule="evenodd" d="M7.46966 1.46966C7.17677 1.17677 6.70189 1.17677 6.409 1.46966L1.46966 6.409C1.17677 6.70189 1.17677 7.17677 1.46966 7.46966C1.76255 7.76255 2.23743 7.76255 2.53032 7.46966L7.46966 2.53032C7.76255 2.23743 7.76255 1.76255 7.46966 1.46966Z" fill="#27262B"/>
<path fill-rule="evenodd" clip-rule="evenodd" d="M7.46966 1.46966C7.17677 1.17677 6.70189 1.17677 6.409 1.46966L1.46966 6.409C1.17677 6.70189 1.17677 7.17677 1.46966 7.46966C1.76255 7.76255 2.23743 7.76255 2.53032 7.46966L7.46966 2.53032C7.76255 2.23743 7.76255 1.76255 7.46966 1.46966Z" fill="#262626"/>
<path fill-rule="evenodd" clip-rule="evenodd" d="M7.46966 1.46966C7.17677 1.17677 6.70189 1.17677 6.409 1.46966L1.46966 6.409C1.17677 6.70189 1.17677 7.17677 1.46966 7.46966C1.76255 7.76255 2.23743 7.76255 2.53032 7.46966L7.46966 2.53032C7.76255 2.23743 7.76255 1.76255 7.46966 1.46966Z" fill="#2D2D2D"/>
</svg>
